<svg xmlns="http://www.w3.org/2000/svg" xmlns:xlink="http://www.w3.org/1999/xlink" width="158.271" height="23.043" viewBox="0 0 158.271 23.043">
  <defs>
    <clipPath id="clip-path">
      <rect id="Rect치ngulo_10463" data-name="Rect치ngulo 10463" width="158.271" height="23.043" fill="#293645"/>
    </clipPath>
  </defs>
  <g id="Grupo_58449" data-name="Grupo 58449" transform="translate(0 0.001)">
    <rect id="Rect치ngulo_10462" data-name="Rect치ngulo 10462" width="4.019" height="22.169" transform="translate(0 0.437)" fill="#293645"/>
    <path id="Trazado_63592" data-name="Trazado 63592" d="M69.479,6.833H60.621v18.15H56.6V6.833H47.728V2.814H69.479Z" transform="translate(-40.313 -2.377)" fill="#293645"/>
    <g id="Grupo_58448" data-name="Grupo 58448" transform="translate(0 -0.001)">
      <g id="Grupo_58447" data-name="Grupo 58447" clip-path="url(#clip-path)">
        <path id="Trazado_63593" data-name="Trazado 63593" d="M223.9,24.983h-4.02V19.541h-14.13v5.442h-4.02V13.9a11.688,11.688,0,0,1,.835-4.468,10.431,10.431,0,0,1,2.319-3.509A10.563,10.563,0,0,1,208.4,3.633a11.681,11.681,0,0,1,4.421-.819h9.059a2.033,2.033,0,0,1,.788.155,1.99,1.99,0,0,1,1.082,1.082,2.033,2.033,0,0,1,.155.788Zm-18.15-9.461h14.13V6.834h-7.065q-.185,0-.781.054a7.95,7.95,0,0,0-1.376.27,8.623,8.623,0,0,0-1.646.665,5.786,5.786,0,0,0-1.592,1.237,6.332,6.332,0,0,0-1.2,1.971,7.751,7.751,0,0,0-.471,2.868Z" transform="translate(-170.393 -2.377)" fill="#293645"/>
        <path id="Trazado_63594" data-name="Trazado 63594" d="M393.815,18.459a7.073,7.073,0,0,1-.3,2.141,6.4,6.4,0,0,1-.8,1.677,5.318,5.318,0,0,1-1.16,1.237,7.121,7.121,0,0,1-1.376.835,6.9,6.9,0,0,1-1.445.479,6.725,6.725,0,0,1-1.384.155H371.846v-4.02h15.506a2.356,2.356,0,0,0,1.8-.68,2.551,2.551,0,0,0,.642-1.824,2.947,2.947,0,0,0-.17-1.02,2.358,2.358,0,0,0-.487-.8,2.151,2.151,0,0,0-.773-.526,2.664,2.664,0,0,0-1.013-.185h-9.245a7.168,7.168,0,0,1-2.1-.348,6.306,6.306,0,0,1-2.095-1.121A6.112,6.112,0,0,1,372.3,12.43a6.656,6.656,0,0,1-.641-3.061,6.608,6.608,0,0,1,.641-3.053,6.162,6.162,0,0,1,3.7-3.154,7.168,7.168,0,0,1,2.1-.348h13.682v4.02H378.108a2.308,2.308,0,0,0-1.786.7,2.606,2.606,0,0,0-.641,1.84,2.544,2.544,0,0,0,.641,1.832,2.35,2.35,0,0,0,1.786.672h9.276a7.114,7.114,0,0,1,1.376.178,6.907,6.907,0,0,1,1.445.5,6.983,6.983,0,0,1,1.368.858,5.793,5.793,0,0,1,1.152,1.245,6.117,6.117,0,0,1,.8,1.67,7.169,7.169,0,0,1,.294,2.133" transform="translate(-313.921 -2.377)" fill="#293645"/>
        <path id="Trazado_63595" data-name="Trazado 63595" d="M560.507,23.043h-6.962L544.5,13.984h-3.085V9.059H544.5L553.545,0h6.962L548.664,11.522Zm-6.6-.874h4.447L547.41,11.522,558.354.874h-4.447l-9.044,9.059h-2.573V13.11h2.573Zm-13.225.874h-4.894V0h4.894Zm-4.02-.874h3.145V.874h-3.145Z" transform="translate(-452.551)" fill="#293645"/>
        <path id="Trazado_63596" data-name="Trazado 63596" d="M723.435,23.043H708.5a6.911,6.911,0,0,1-1.949-.312,5.768,5.768,0,0,1-3.5-2.929,6.064,6.064,0,0,1-.614-2.839V2.462a2.5,2.5,0,0,1,.7-1.743,2.354,2.354,0,0,1,.787-.532A2.519,2.519,0,0,1,704.894,0h18.54V4.894H707.326v12.07a1.211,1.211,0,0,0,.289.9,1.251,1.251,0,0,0,.912.289h14.907ZM704.894.874a1.651,1.651,0,0,0-.636.121,1.461,1.461,0,0,0-.5.334,1.628,1.628,0,0,0-.335.513,1.583,1.583,0,0,0-.121.62v14.5a5.212,5.212,0,0,0,.514,2.433A5,5,0,0,0,705.113,21a4.947,4.947,0,0,0,1.683.889,6.043,6.043,0,0,0,1.7.276H722.56V19.024H708.527a2.078,2.078,0,0,1-1.53-.545,2.056,2.056,0,0,1-.545-1.515V4.02H722.56V.874Zm16.732,13.11H708.059V9.059h13.567Zm-12.692-.874h11.818V9.934H708.934Z" transform="translate(-593.305)" fill="#293645"/>
        <path id="Trazado_63597" data-name="Trazado 63597" d="M884.346,23.042h-7.553l-8.379-7.25h-3.165V10.9h9.509A4.225,4.225,0,0,0,876,10.614a3.016,3.016,0,0,0,.946-.6,2.522,2.522,0,0,0,.6-.891,3.293,3.293,0,0,0,.215-1.235V5.353a.837.837,0,0,0-.042-.33.207.207,0,0,0-.06-.085.2.2,0,0,0-.086-.032,2.221,2.221,0,0,0-.224-.013H864.516V23.042h-4.894V2.462a2.5,2.5,0,0,1,.7-1.743,2.351,2.351,0,0,1,.787-.531A2.515,2.515,0,0,1,862.084,0h15.259a5.3,5.3,0,0,1,2.476.537,5.084,5.084,0,0,1,1.647,1.338,5.2,5.2,0,0,1,.911,1.73,6.019,6.019,0,0,1,.273,1.718V7.888a8.67,8.67,0,0,1-.36,2.589,7.386,7.386,0,0,1-.979,2.029,6.951,6.951,0,0,1-1.427,1.509,8.524,8.524,0,0,1-1.67,1.018,8.091,8.091,0,0,1-1.765.58q-.3.06-.587.1Zm-7.227-.874H882l-8.395-7.25h1.175a7.615,7.615,0,0,0,1.5-.162,7.211,7.211,0,0,0,1.574-.518,7.654,7.654,0,0,0,1.5-.914A6.07,6.07,0,0,0,880.595,12a6.511,6.511,0,0,0,.861-1.79,7.8,7.8,0,0,0,.32-2.327V5.321a5.155,5.155,0,0,0-.237-1.467,4.33,4.33,0,0,0-.759-1.439,4.21,4.21,0,0,0-1.367-1.105,4.437,4.437,0,0,0-2.069-.437H862.084a1.648,1.648,0,0,0-.636.121,1.458,1.458,0,0,0-.5.334,1.629,1.629,0,0,0-.335.512,1.582,1.582,0,0,0-.121.621V22.168h3.145V4.019h13.7a3.007,3.007,0,0,1,.316.018,1.067,1.067,0,0,1,.47.168,1.055,1.055,0,0,1,.374.441,1.636,1.636,0,0,1,.128.707V7.888a4.155,4.155,0,0,1-.279,1.563,3.388,3.388,0,0,1-.808,1.2,3.885,3.885,0,0,1-1.218.776,5.1,5.1,0,0,1-1.513.348l-.035,0h-8.653v3.145h2.616Z" transform="translate(-726.075 0.001)" fill="#293645"/>
      </g>
    </g>
  </g>
</svg>
