<svg xmlns="http://www.w3.org/2000/svg" xmlns:xlink="http://www.w3.org/1999/xlink" width="30" height="30" viewBox="0 0 30 30">
  <defs>
    <clipPath id="clip-path">
      <rect id="Rectángulo_10312" data-name="Rectángulo 10312" width="30" height="30" transform="translate(0.168 0.168)" fill="#8a98a5" stroke="#707070" stroke-width="1"/>
    </clipPath>
  </defs>
  <g id="Enmascarar_grupo_458" data-name="Enmascarar grupo 458" transform="translate(-0.168 -0.168)" clip-path="url(#clip-path)">
    <path id="image-plus-outline" d="M19.068,28.169A9.175,9.175,0,0,0,19.6,31.2H6.934A3.033,3.033,0,0,1,3.9,28.169V6.934A3.043,3.043,0,0,1,6.934,3.9H28.169A3.033,3.033,0,0,1,31.2,6.934V19.6a9.175,9.175,0,0,0-3.034-.531V6.934H6.934V28.169H19.068m1.456-10.178-4.171,5.369-2.973-3.58L9.209,25.135H19.6A9.16,9.16,0,0,1,22.708,20.9l-2.184-2.912m9.161,8.661V22.1H26.652v4.55H22.1v3.034h4.55v4.55h3.034v-4.55h4.55V26.652Z" transform="translate(-3.9 -3.9)" fill="#8a98a5"/>
  </g>
</svg>
