<svg xmlns="http://www.w3.org/2000/svg" xmlns:xlink="http://www.w3.org/1999/xlink" width="26" height="26" viewBox="0 0 26 26">
  <defs>
    <clipPath id="clip-path">
      <rect id="Rectángulo_10378" data-name="Rectángulo 10378" width="26" height="26" transform="translate(221.75 761)" fill="#8a98a5" stroke="#707070" stroke-width="1"/>
    </clipPath>
  </defs>
  <g id="Enmascarar_grupo_491" data-name="Enmascarar grupo 491" transform="translate(-221.75 -761)" clip-path="url(#clip-path)">
    <path id="map_1_" data-name="map (1)" d="M21.667,27.444,13,24.4V7.222l8.667,3.048m7.944-5.937H29.38L21.667,7.367,13,4.333,4.853,7.078a.728.728,0,0,0-.52.693v21.84a.722.722,0,0,0,.722.722.44.44,0,0,0,.231-.043L13,27.3l8.667,3.033,8.147-2.744a.771.771,0,0,0,.52-.693V5.056A.722.722,0,0,0,29.611,4.333Z" transform="translate(217.417 756.667)" fill="#8a98a5"/>
  </g>
</svg>
