<svg xmlns="http://www.w3.org/2000/svg" xmlns:xlink="http://www.w3.org/1999/xlink" width="26" height="26" viewBox="0 0 26 26">
  <defs>
    <clipPath id="clip-path">
      <rect id="Rectángulo_10223" data-name="Rectángulo 10223" width="26" height="26" transform="translate(285 7)" fill="#8a98a5" stroke="#707070" stroke-width="1"/>
    </clipPath>
  </defs>
  <g id="Enmascarar_grupo_439" data-name="Enmascarar grupo 439" transform="translate(-285 -7)" clip-path="url(#clip-path)">
    <path id="forum_3_" data-name="forum (3)" d="M22.1,15.6V3.9a1.3,1.3,0,0,0-1.3-1.3H3.9A1.3,1.3,0,0,0,2.6,3.9V22.1l5.2-5.2h13a1.3,1.3,0,0,0,1.3-1.3m5.2-7.8H24.7V19.5H7.8v2.6a1.3,1.3,0,0,0,1.3,1.3H23.4l5.2,5.2V9.1A1.3,1.3,0,0,0,27.3,7.8Z" transform="translate(282.4 4.4)" fill="#8a98a5"/>
  </g>
</svg>
