<svg xmlns="http://www.w3.org/2000/svg" xmlns:xlink="http://www.w3.org/1999/xlink" width="26" height="26" viewBox="0 0 26 26">
  <defs>
    <clipPath id="clip-path">
      <rect id="Rectángulo_10381" data-name="Rectángulo 10381" width="26" height="26" transform="translate(325 7)" fill="#93378e" stroke="#707070" stroke-width="1"/>
    </clipPath>
  </defs>
  <g id="Enmascarar_grupo_494" data-name="Enmascarar grupo 494" transform="translate(-325 -7)" clip-path="url(#clip-path)">
    <path id="account-circle_5_" data-name="account-circle (5)" d="M15.6,24.96A9.4,9.4,0,0,1,7.8,20.8c.039-2.6,5.2-4.03,7.8-4.03s7.761,1.43,7.8,4.03a9.4,9.4,0,0,1-7.8,4.16m0-18.46a3.9,3.9,0,1,1-3.9,3.9,3.9,3.9,0,0,1,3.9-3.9m0-3.9a13,13,0,1,0,13,13A13,13,0,0,0,15.6,2.6Z" transform="translate(322.4 4.4)" fill="#93378e"/>
  </g>
</svg>
