<svg xmlns="http://www.w3.org/2000/svg" width="24.004" height="24" viewBox="0 0 24.004 24">
  <g id="Grupo_58256" data-name="Grupo 58256" transform="translate(-572.293 -276.662)">
    <path id="Trazado_64953" data-name="Trazado 64953" d="M595.293,288.914a12,12,0,1,1-11.719-12.247A12.02,12.02,0,0,1,595.293,288.914Zm-13.2.3c0,.206-.012.413,0,.618a1.192,1.192,0,0,0,1.1,1.209,1.218,1.218,0,0,0,1.308-1.055.886.886,0,0,1,.395-.508,3.6,3.6,0,1,0-4.663-5.1,1.21,1.21,0,0,0,.286,1.653,1.194,1.194,0,0,0,1.655-.252,3.257,3.257,0,0,1,.316-.392,1.191,1.191,0,1,1,1.068,2.036C582.241,287.726,582.087,287.907,582.093,289.218Zm1.2,5.435a1.2,1.2,0,0,0,1.2-1.162,1.2,1.2,0,0,0-2.4-.051A1.192,1.192,0,0,0,583.3,294.653Z" transform="translate(1)" fill="#1e55eb"/>
  </g>
</svg>
