<svg xmlns="http://www.w3.org/2000/svg" xmlns:xlink="http://www.w3.org/1999/xlink" width="20" height="19.604" viewBox="0 0 20 19.604">
  <defs>
    <clipPath id="clip-path">
      <rect id="Rectángulo_9991" data-name="Rectángulo 9991" width="20" height="19.604" fill="#8a98a5" stroke="#707070" stroke-width="1"/>
    </clipPath>
  </defs>
  <g id="Enmascarar_grupo_373" data-name="Enmascarar grupo 373" clip-path="url(#clip-path)">
    <path id="search_2_" data-name="search (2)" d="M14.677,12.439A7.61,7.61,0,0,0,13.411,1.885a8.36,8.36,0,0,0-11.035.409,7.6,7.6,0,0,0-.417,10.616A8.351,8.351,0,0,0,12.93,14.12h0a1.422,1.422,0,0,0,.122.138l4.812,4.63a1.285,1.285,0,0,0,1.768,0,1.171,1.171,0,0,0,0-1.7l-4.812-4.63a1.246,1.246,0,0,0-.144-.12ZM15,7.817A6.748,6.748,0,0,1,8.124,14.43,6.748,6.748,0,0,1,1.25,7.817,6.748,6.748,0,0,1,8.124,1.2,6.748,6.748,0,0,1,15,7.817Z" transform="translate(0.001 0.364)" fill="#8a98a5"/>
  </g>
</svg>
