<svg xmlns="http://www.w3.org/2000/svg" width="110" height="110" viewBox="0 0 110 110">
  <g id="Grupo_58297" data-name="Grupo 58297" transform="translate(-135 -197)">
    <circle id="Elipse_3455" data-name="Elipse 3455" cx="55" cy="55" r="55" transform="translate(135 197)" fill="#fff"/>
    <path id="Icon_awesome-check" data-name="Icon awesome-check" d="M18.341,44.055.791,26.5a2.7,2.7,0,0,1,0-3.818l3.818-3.818a2.7,2.7,0,0,1,3.818,0L20.25,30.69,45.573,5.368a2.7,2.7,0,0,1,3.818,0l3.818,3.818a2.7,2.7,0,0,1,0,3.818l-31.05,31.05A2.7,2.7,0,0,1,18.341,44.055Z" transform="translate(163.455 228.155)" fill="#93378e"/>
  </g>
</svg>
